<?xml version="1.0" encoding="UTF-8"?>
<svg xmlns="http://www.w3.org/2000/svg" xmlns:xlink="http://www.w3.org/1999/xlink" width="280pt" height="488pt" viewBox="0 0 280 488" version="1.1">
<defs>
<linearGradient id="linear0" gradientUnits="userSpaceOnUse" x1="0" y1="0" x2="1" y2="1" gradientTransform="matrix(127.889118,0,0,127.59716,-97.233887,1533.55284)">
<stop offset="0" style="stop-color:rgb(89.411765%,43.921569%,90.196078%);stop-opacity:1;"/>
<stop offset="1" style="stop-color:rgb(65.882353%,28.627451%,63.921569%);stop-opacity:1;"/>
</linearGradient>
<linearGradient id="linear1" gradientUnits="userSpaceOnUse" x1="0" y1="0" x2="1" y2="1" gradientTransform="matrix(127.880985,0,0,127.59716,-151.337068,1476.234249)">
<stop offset="0" style="stop-color:rgb(89.411765%,43.921569%,90.196078%);stop-opacity:1;"/>
<stop offset="1" style="stop-color:rgb(65.882353%,28.627451%,63.921569%);stop-opacity:1;"/>
</linearGradient>
<linearGradient id="linear2" gradientUnits="userSpaceOnUse" x1="0" y1="0" x2="1" y2="1" gradientTransform="matrix(170.015254,-0.000000000000014211,0,169.879138,162.024032,1112.061524)">
<stop offset="0" style="stop-color:rgb(89.411765%,43.921569%,90.196078%);stop-opacity:1;"/>
<stop offset="1" style="stop-color:rgb(65.882353%,28.627451%,63.921569%);stop-opacity:1;"/>
</linearGradient>
<linearGradient id="linear3" gradientUnits="userSpaceOnUse" x1="0" y1="0" x2="1" y2="1" gradientTransform="matrix(127.889118,0,0,127.59716,-224.667536,1332.94184)">
<stop offset="0" style="stop-color:rgb(89.411765%,43.921569%,90.196078%);stop-opacity:1;"/>
<stop offset="1" style="stop-color:rgb(65.882353%,28.627451%,63.921569%);stop-opacity:1;"/>
</linearGradient>
<linearGradient id="linear4" gradientUnits="userSpaceOnUse" x1="0" y1="0" x2="1" y2="1" gradientTransform="matrix(170.015254,-0.000000000000014211,0.000000000000014211,169.879138,100.629274,1043.201274)">
<stop offset="0" style="stop-color:rgb(89.411765%,43.921569%,90.196078%);stop-opacity:1;"/>
<stop offset="1" style="stop-color:rgb(65.882353%,28.627451%,63.921569%);stop-opacity:1;"/>
</linearGradient>
<linearGradient id="linear5" gradientUnits="userSpaceOnUse" x1="0" y1="0" x2="1" y2="1" gradientTransform="matrix(170.022614,0,0.000000000000014211,169.882598,61.215394,1011.325436)">
<stop offset="0" style="stop-color:rgb(89.411765%,43.921569%,90.196078%);stop-opacity:1;"/>
<stop offset="1" style="stop-color:rgb(65.882353%,28.627451%,63.921569%);stop-opacity:1;"/>
</linearGradient>
<linearGradient id="linear6" gradientUnits="userSpaceOnUse" x1="0" y1="0" x2="1" y2="1" gradientTransform="matrix(127.889118,0,0,127.59716,-54.038762,1603.500899)">
<stop offset="0" style="stop-color:rgb(89.411765%,43.921569%,90.196078%);stop-opacity:1;"/>
<stop offset="1" style="stop-color:rgb(65.882353%,28.627451%,63.921569%);stop-opacity:1;"/>
</linearGradient>
<linearGradient id="linear7" gradientUnits="userSpaceOnUse" x1="0" y1="0" x2="1" y2="1" gradientTransform="matrix(170.01179,-0.000000000000014211,-0.000000000000014211,169.871771,281.176196,1144.646265)">
<stop offset="0" style="stop-color:rgb(89.411765%,43.921569%,90.196078%);stop-opacity:1;"/>
<stop offset="1" style="stop-color:rgb(65.882353%,28.627451%,63.921569%);stop-opacity:1;"/>
</linearGradient>
<linearGradient id="linear8" gradientUnits="userSpaceOnUse" x1="0" y1="0" x2="1" y2="1" gradientTransform="matrix(170.022614,0,0,169.882598,217.11382,1109.078468)">
<stop offset="0" style="stop-color:rgb(89.411765%,43.921569%,90.196078%);stop-opacity:1;"/>
<stop offset="1" style="stop-color:rgb(65.882353%,28.627451%,63.921569%);stop-opacity:1;"/>
</linearGradient>
<linearGradient id="linear9" gradientUnits="userSpaceOnUse" x1="0" y1="0" x2="1" y2="1" gradientTransform="matrix(170.022614,0,0.000000000000014211,169.882598,177.713437,1077.215682)">
<stop offset="0" style="stop-color:rgb(89.411765%,43.921569%,90.196078%);stop-opacity:1;"/>
<stop offset="1" style="stop-color:rgb(65.882353%,28.627451%,63.921569%);stop-opacity:1;"/>
</linearGradient>
<linearGradient id="linear10" gradientUnits="userSpaceOnUse" x1="0" y1="0" x2="1" y2="1" gradientTransform="matrix(170.022614,-0.000000000000014211,0.000000000000014211,169.882598,290.385588,1096.015584)">
<stop offset="0" style="stop-color:rgb(89.411765%,43.921569%,90.196078%);stop-opacity:1;"/>
<stop offset="1" style="stop-color:rgb(65.882353%,28.627451%,63.921569%);stop-opacity:1;"/>
</linearGradient>
<linearGradient id="linear11" gradientUnits="userSpaceOnUse" x1="0" y1="0" x2="1" y2="1" gradientTransform="matrix(170.022614,0,0,169.882598,254.632961,1091.441375)">
<stop offset="0" style="stop-color:rgb(89.411765%,43.921569%,90.196078%);stop-opacity:1;"/>
<stop offset="1" style="stop-color:rgb(65.882353%,28.627451%,63.921569%);stop-opacity:1;"/>
</linearGradient>
<linearGradient id="linear12" gradientUnits="userSpaceOnUse" x1="0" y1="0" x2="1" y2="1" gradientTransform="matrix(170.022614,0,0.000000000000014211,169.882598,280.042236,1038.271387)">
<stop offset="0" style="stop-color:rgb(89.411765%,43.921569%,90.196078%);stop-opacity:1;"/>
<stop offset="1" style="stop-color:rgb(65.882353%,28.627451%,63.921569%);stop-opacity:1;"/>
</linearGradient>
<linearGradient id="linear13" gradientUnits="userSpaceOnUse" x1="0" y1="0" x2="1" y2="1" gradientTransform="matrix(170.022614,0,0,169.882598,259.479331,968.525176)">
<stop offset="0" style="stop-color:rgb(89.411765%,43.921569%,90.196078%);stop-opacity:1;"/>
<stop offset="1" style="stop-color:rgb(65.882353%,28.627451%,63.921569%);stop-opacity:1;"/>
</linearGradient>
<linearGradient id="linear14" gradientUnits="userSpaceOnUse" x1="0" y1="0" x2="1" y2="1" gradientTransform="matrix(170.022614,0,0.000000000000014211,169.882598,238.793875,1005.741045)">
<stop offset="0" style="stop-color:rgb(89.411765%,43.921569%,90.196078%);stop-opacity:1;"/>
<stop offset="1" style="stop-color:rgb(65.882353%,28.627451%,63.921569%);stop-opacity:1;"/>
</linearGradient>
<linearGradient id="linear15" gradientUnits="userSpaceOnUse" x1="0" y1="0" x2="1" y2="1" gradientTransform="matrix(170.022614,0,0,169.882598,214.42896,1041.623045)">
<stop offset="0" style="stop-color:rgb(89.411765%,43.921569%,90.196078%);stop-opacity:1;"/>
<stop offset="1" style="stop-color:rgb(65.882353%,28.627451%,63.921569%);stop-opacity:1;"/>
</linearGradient>
<linearGradient id="linear16" gradientUnits="userSpaceOnUse" x1="0" y1="0" x2="1" y2="1" gradientTransform="matrix(170.022614,0,0.000000000000014211,169.882598,155.739454,1040.208633)">
<stop offset="0" style="stop-color:rgb(89.411765%,43.921569%,90.196078%);stop-opacity:1;"/>
<stop offset="1" style="stop-color:rgb(65.882353%,28.627451%,63.921569%);stop-opacity:1;"/>
</linearGradient>
<linearGradient id="linear17" gradientUnits="userSpaceOnUse" x1="0" y1="0" x2="1" y2="1" gradientTransform="matrix(127.889118,0,0,127.59716,-187.066964,1230.426143)">
<stop offset="0" style="stop-color:rgb(89.411765%,43.921569%,90.196078%);stop-opacity:1;"/>
<stop offset="1" style="stop-color:rgb(65.882353%,28.627451%,63.921569%);stop-opacity:1;"/>
</linearGradient>
<linearGradient id="linear18" gradientUnits="userSpaceOnUse" x1="0" y1="0" x2="1" y2="1" gradientTransform="matrix(170.015254,0,-0.000000000000014211,169.879138,179.869587,987.618475)">
<stop offset="0" style="stop-color:rgb(89.411765%,43.921569%,90.196078%);stop-opacity:1;"/>
<stop offset="1" style="stop-color:rgb(65.882353%,28.627451%,63.921569%);stop-opacity:1;"/>
</linearGradient>
<linearGradient id="linear19" gradientUnits="userSpaceOnUse" x1="0" y1="0" x2="1" y2="1" gradientTransform="matrix(170.022614,0,0.000000000000014211,169.882598,210.207471,935.191694)">
<stop offset="0" style="stop-color:rgb(89.411765%,43.921569%,90.196078%);stop-opacity:1;"/>
<stop offset="1" style="stop-color:rgb(65.882353%,28.627451%,63.921569%);stop-opacity:1;"/>
</linearGradient>
<linearGradient id="linear20" gradientUnits="userSpaceOnUse" x1="0" y1="0" x2="1" y2="1" gradientTransform="matrix(170.022614,0,-0.000000000000014211,169.882598,30.424328,955.561928)">
<stop offset="0" style="stop-color:rgb(89.411765%,43.921569%,90.196078%);stop-opacity:1;"/>
<stop offset="1" style="stop-color:rgb(65.882353%,28.627451%,63.921569%);stop-opacity:1;"/>
</linearGradient>
<linearGradient id="linear21" gradientUnits="userSpaceOnUse" x1="0" y1="0" x2="1" y2="1" gradientTransform="matrix(170.022614,0,0.000000000000014211,169.882598,81.970993,971.02901)">
<stop offset="0" style="stop-color:rgb(89.411765%,43.921569%,90.196078%);stop-opacity:1;"/>
<stop offset="1" style="stop-color:rgb(65.882353%,28.627451%,63.921569%);stop-opacity:1;"/>
</linearGradient>
<linearGradient id="linear22" gradientUnits="userSpaceOnUse" x1="0" y1="0" x2="1" y2="1" gradientTransform="matrix(170.022614,0,-0.000000000000014211,169.882598,144.653028,961.407916)">
<stop offset="0" style="stop-color:rgb(89.411765%,43.921569%,90.196078%);stop-opacity:1;"/>
<stop offset="1" style="stop-color:rgb(65.882353%,28.627451%,63.921569%);stop-opacity:1;"/>
</linearGradient>
<linearGradient id="linear23" gradientUnits="userSpaceOnUse" x1="0" y1="0" x2="1" y2="1" gradientTransform="matrix(170.015254,-0.000000000000014211,0.000000000000014211,169.879138,153.936027,909.710965)">
<stop offset="0" style="stop-color:rgb(89.411765%,43.921569%,90.196078%);stop-opacity:1;"/>
<stop offset="1" style="stop-color:rgb(65.882353%,28.627451%,63.921569%);stop-opacity:1;"/>
</linearGradient>
<linearGradient id="linear24" gradientUnits="userSpaceOnUse" x1="0" y1="0" x2="1" y2="1" gradientTransform="matrix(170.022614,0,-0.000000000000014211,169.882598,240.660835,902.542789)">
<stop offset="0" style="stop-color:rgb(89.411765%,43.921569%,90.196078%);stop-opacity:1;"/>
<stop offset="1" style="stop-color:rgb(65.882353%,28.627451%,63.921569%);stop-opacity:1;"/>
</linearGradient>
<linearGradient id="linear25" gradientUnits="userSpaceOnUse" x1="0" y1="0" x2="1" y2="1" gradientTransform="matrix(170.022614,0,0,169.882598,190.069682,872.877068)">
<stop offset="0" style="stop-color:rgb(89.411765%,43.921569%,90.196078%);stop-opacity:1;"/>
<stop offset="1" style="stop-color:rgb(65.882353%,28.627451%,63.921569%);stop-opacity:1;"/>
</linearGradient>
<linearGradient id="linear26" gradientUnits="userSpaceOnUse" x1="0" y1="0" x2="1" y2="1" gradientTransform="matrix(170.015254,0,-0.000000000000014211,169.879138,128.067435,854.681072)">
<stop offset="0" style="stop-color:rgb(89.411765%,43.921569%,90.196078%);stop-opacity:1;"/>
<stop offset="1" style="stop-color:rgb(65.882353%,28.627451%,63.921569%);stop-opacity:1;"/>
</linearGradient>
<linearGradient id="linear27" gradientUnits="userSpaceOnUse" x1="0" y1="0" x2="1" y2="1" gradientTransform="matrix(170.022614,0,0.000000000000014211,169.882598,41.486873,881.644089)">
<stop offset="0" style="stop-color:rgb(89.411765%,43.921569%,90.196078%);stop-opacity:1;"/>
<stop offset="1" style="stop-color:rgb(65.882353%,28.627451%,63.921569%);stop-opacity:1;"/>
</linearGradient>
<linearGradient id="linear28" gradientUnits="userSpaceOnUse" x1="0" y1="0" x2="1" y2="1" gradientTransform="matrix(170.022614,0.000000000000014211,0,169.882598,82.034711,841.202364)">
<stop offset="0" style="stop-color:rgb(89.411765%,43.921569%,90.196078%);stop-opacity:1;"/>
<stop offset="1" style="stop-color:rgb(65.882353%,28.627451%,63.921569%);stop-opacity:1;"/>
</linearGradient>
<linearGradient id="linear29" gradientUnits="userSpaceOnUse" x1="0" y1="0" x2="1" y2="1" gradientTransform="matrix(127.889118,0,0,127.59716,161.950553,323.806609)">
<stop offset="0" style="stop-color:rgb(89.411765%,43.921569%,90.196078%);stop-opacity:1;"/>
<stop offset="1" style="stop-color:rgb(65.882353%,28.627451%,63.921569%);stop-opacity:1;"/>
</linearGradient>
</defs>
<g id="surface1">
<path style="fill-rule:nonzero;fill:url(#linear0);stroke-width:1.5;stroke-linecap:round;stroke-linejoin:round;stroke:rgb(0%,0%,0%);stroke-opacity:1;stroke-miterlimit:4;" d="M 23.977734 1624.272679 C 9.158733 1655.785286 -28.482506 1669.274408 -60.096917 1654.41765 C -91.719461 1639.552752 -105.342857 1601.95091 -90.531989 1570.446443 C -75.712988 1538.933836 -38.071749 1525.436573 -6.457338 1540.301471 C 25.165206 1555.16637 38.788602 1592.760072 23.977734 1624.272679 Z M 23.977734 1624.272679 " transform="matrix(0.480274,0,0,0.479843,156.593482,-353.875815)"/>
<path style=" stroke:none;fill-rule:nonzero;fill:rgb(40%,40%,40%);fill-opacity:1;" d="M 167.199219 425.09375 C 168.222656 424.890625 153.890625 450.882812 128.320312 439.015625 C 102.722656 427.136719 113.332031 399.789062 113.808594 400.570312 C 129.644531 436.160156 147.792969 439.414062 167.199219 425.09375 Z M 167.199219 425.09375 "/>
<path style="fill-rule:nonzero;fill:url(#linear1);stroke-width:1.5;stroke-linecap:round;stroke-linejoin:round;stroke:rgb(0%,0%,0%);stroke-opacity:1;stroke-miterlimit:4;" d="M -30.13358 1566.954087 C -44.944448 1598.466695 -82.585686 1611.963957 -114.208231 1597.099059 C -145.822642 1582.234161 -159.454171 1544.640459 -144.63517 1513.127851 C -129.824302 1481.615244 -92.183064 1468.117982 -60.560519 1482.98288 C -28.946108 1497.847778 -15.322712 1535.44148 -30.13358 1566.954087 Z M -30.13358 1566.954087 " transform="matrix(0.480274,0,0,0.479843,156.593482,-353.875815)"/>
<path style=" stroke:none;fill-rule:nonzero;fill:rgb(40%,40%,40%);fill-opacity:1;" d="M 141.214844 397.589844 C 142.238281 397.386719 127.90625 423.378906 102.335938 411.511719 C 76.738281 399.632812 87.347656 372.285156 87.820312 373.066406 C 103.660156 408.660156 121.808594 411.910156 141.214844 397.589844 Z M 141.214844 397.589844 "/>
<path style="fill-rule:nonzero;fill:url(#linear2);stroke-width:1.5;stroke-linecap:round;stroke-linejoin:round;stroke:rgb(0%,0%,0%);stroke-opacity:1;stroke-miterlimit:4;" d="M 310.30763 1197.00374 C 310.310036 1231.823554 281.986787 1260.052085 247.044494 1260.052364 C 212.109561 1260.049183 183.779742 1231.826075 183.784696 1197.002801 C 183.78229 1162.182987 212.109002 1133.961822 247.047832 1133.954176 C 281.982765 1133.957358 310.308687 1162.191293 310.30763 1197.00374 Z M 310.30763 1197.00374 " transform="matrix(0.434644,0.204135,-0.204318,0.434253,232.649743,-220.853829)"/>
<path style=" stroke:none;fill-rule:nonzero;fill:rgb(40%,40%,40%);fill-opacity:1;" d="M 122.042969 361.867188 C 123.066406 361.664062 108.734375 387.65625 83.167969 375.789062 C 57.566406 363.910156 68.179688 336.5625 68.652344 337.34375 C 84.488281 372.933594 102.636719 376.1875 122.042969 361.867188 Z M 122.042969 361.867188 "/>
<path style="fill-rule:nonzero;fill:url(#linear3);stroke-width:1.5;stroke-linecap:round;stroke-linejoin:round;stroke:rgb(0%,0%,0%);stroke-opacity:1;stroke-miterlimit:4;" d="M -103.464049 1423.661679 C -118.274916 1455.174286 -155.916155 1468.671549 -187.5387 1453.80665 C -219.153111 1438.941752 -232.776507 1401.34805 -217.965639 1369.835443 C -203.154771 1338.322836 -165.513532 1324.825573 -133.890988 1339.690472 C -102.276576 1354.55537 -88.645047 1392.149072 -103.464049 1423.661679 Z M -103.464049 1423.661679 " transform="matrix(0.480274,0,0,0.479843,156.593482,-353.875815)"/>
<path style=" stroke:none;fill-rule:nonzero;fill:rgb(40%,40%,40%);fill-opacity:1;" d="M 105.996094 328.832031 C 107.019531 328.632812 92.6875 354.621094 67.117188 342.757812 C 41.519531 330.878906 52.128906 303.527344 52.601562 304.3125 C 68.441406 339.902344 86.589844 343.152344 105.996094 328.832031 Z M 105.996094 328.832031 "/>
<path style="fill-rule:nonzero;fill:url(#linear4);stroke-width:1.5;stroke-linecap:round;stroke-linejoin:round;stroke:rgb(0%,0%,0%);stroke-opacity:1;stroke-miterlimit:4;" d="M 248.912871 1128.14349 C 248.915278 1162.963304 220.592029 1191.191836 185.649736 1191.192115 C 150.714803 1191.188933 122.384983 1162.965826 122.389938 1128.142551 C 122.387532 1093.322737 150.71078 1065.094205 185.653074 1065.093927 C 220.588006 1065.097108 248.910465 1093.323676 248.912871 1128.14349 Z M 248.912871 1128.14349 " transform="matrix(0.434644,0.204135,-0.204318,0.434253,226.194854,-242.56671)"/>
<path style=" stroke:none;fill-rule:nonzero;fill:rgb(40%,40%,40%);fill-opacity:1;" d="M 102.972656 297.71875 C 103.996094 297.515625 89.664062 323.503906 64.09375 311.640625 C 38.496094 299.761719 49.109375 272.410156 49.582031 273.195312 C 65.417969 308.785156 83.566406 312.035156 102.972656 297.714844 Z M 102.972656 297.71875 "/>
<path style="fill-rule:nonzero;fill:url(#linear5);stroke-width:1.5;stroke-linecap:round;stroke-linejoin:round;stroke:rgb(0%,0%,0%);stroke-opacity:1;stroke-miterlimit:4;" d="M 209.506353 1096.267652 C 209.501398 1131.090926 181.174686 1159.31209 146.239754 1159.308909 C 111.300924 1159.316555 82.975001 1131.08262 82.976058 1096.270173 C 82.981013 1061.446899 111.304262 1033.218367 146.239194 1033.221548 C 181.181488 1033.22127 209.503947 1061.447837 209.506353 1096.267652 Z M 209.506353 1096.267652 " transform="matrix(0.434644,0.204135,-0.204318,0.434253,220.76295,-253.766238)"/>
<path style=" stroke:none;fill-rule:nonzero;fill:rgb(40%,40%,40%);fill-opacity:1;" d="M 86.921875 264.628906 C 87.945312 264.425781 73.613281 290.417969 48.046875 278.550781 C 22.449219 266.671875 33.058594 239.324219 33.535156 240.105469 C 49.371094 275.695312 67.519531 278.949219 86.925781 264.628906 Z M 86.921875 264.628906 "/>
<path style="fill-rule:nonzero;fill:url(#linear6);stroke-width:1.5;stroke-linecap:round;stroke-linejoin:round;stroke:rgb(0%,0%,0%);stroke-opacity:1;stroke-miterlimit:4;" d="M 67.172859 1694.220738 C 52.353858 1725.733345 14.712619 1739.230608 -16.901792 1724.365709 C -48.524337 1709.500811 -62.147733 1671.907109 -47.336865 1640.394502 C -32.525997 1608.881895 5.115242 1595.392773 36.737786 1610.24953 C 68.360331 1625.114429 81.983727 1662.708131 67.172859 1694.220738 Z M 67.172859 1694.220738 " transform="matrix(0.480274,0,0,0.479843,155.914374,-350.482848)"/>
<path style=" stroke:none;fill-rule:nonzero;fill:rgb(40%,40%,40%);fill-opacity:1;" d="M 187.265625 462.050781 C 188.289062 461.851562 173.957031 487.839844 148.386719 475.976562 C 122.789062 464.097656 133.398438 436.75 133.875 437.53125 C 149.710938 473.121094 167.859375 476.375 187.265625 462.050781 Z M 187.265625 462.050781 "/>
<path style="fill-rule:nonzero;fill:url(#linear7);stroke-width:1.5;stroke-linecap:round;stroke-linejoin:round;stroke:rgb(0%,0%,0%);stroke-opacity:1;stroke-miterlimit:4;" d="M 429.456331 1229.581113 C 429.458737 1264.400927 401.135488 1292.629459 366.193195 1292.629738 C 331.258262 1292.626556 302.928442 1264.403449 302.933397 1229.580175 C 302.930991 1194.76036 331.257703 1166.539196 366.199996 1166.538917 C 401.131465 1166.534731 429.457388 1194.768666 429.456331 1229.581113 Z M 429.456331 1229.581113 " transform="matrix(0.434644,0.204135,-0.204318,0.434253,255.741338,-201.170682)"/>
<path style=" stroke:none;fill-rule:nonzero;fill:rgb(40%,40%,40%);fill-opacity:1;" d="M 190.265625 420.019531 C 191.289062 419.816406 176.957031 445.808594 151.390625 433.941406 C 125.789062 422.0625 136.402344 394.714844 136.875 395.496094 C 152.710938 431.085938 170.859375 434.339844 190.265625 420.019531 Z M 190.265625 420.019531 "/>
<path style="fill-rule:nonzero;fill:url(#linear8);stroke-width:1.5;stroke-linecap:round;stroke-linejoin:round;stroke:rgb(0%,0%,0%);stroke-opacity:1;stroke-miterlimit:4;" d="M 365.404779 1194.020684 C 365.399824 1228.843958 337.076575 1257.07249 302.141643 1257.069308 C 267.199349 1257.069587 238.87689 1228.84302 238.874484 1194.023205 C 238.879439 1159.199931 267.202687 1130.971399 302.13762 1130.974581 C 337.079913 1130.974302 365.402372 1159.20087 365.404779 1194.020684 Z M 365.404779 1194.020684 " transform="matrix(0.434644,0.204135,-0.204318,0.434253,245.213722,-215.762698)"/>
<path style=" stroke:none;fill-rule:nonzero;fill:rgb(40%,40%,40%);fill-opacity:1;" d="M 159.160156 376.90625 C 160.183594 376.707031 145.851562 402.695312 120.285156 390.832031 C 94.6875 378.949219 105.296875 351.601562 105.773438 352.386719 C 121.609375 387.976562 139.757812 391.226562 159.160156 376.90625 Z M 159.160156 376.90625 "/>
<path style="fill-rule:nonzero;fill:url(#linear9);stroke-width:1.5;stroke-linecap:round;stroke-linejoin:round;stroke:rgb(0%,0%,0%);stroke-opacity:1;stroke-miterlimit:4;" d="M 325.997035 1162.161358 C 325.999441 1196.981172 297.676192 1225.209703 262.733899 1225.209982 C 227.798966 1225.206801 199.476507 1196.980233 199.474101 1162.160419 C 199.471695 1127.340605 227.794944 1099.112073 262.737237 1099.111794 C 297.67953 1099.111516 326.001989 1127.338083 325.997035 1162.161358 Z M 325.997035 1162.161358 " transform="matrix(0.434644,0.204135,-0.204318,0.434253,239.781818,-226.957428)"/>
<path style=" stroke:none;fill-rule:nonzero;fill:rgb(40%,40%,40%);fill-opacity:1;" d="M 143.113281 343.832031 C 144.136719 343.632812 129.804688 369.621094 104.238281 357.757812 C 78.636719 345.875 89.25 318.527344 89.722656 319.3125 C 105.5625 354.902344 123.710938 358.152344 143.113281 343.832031 Z M 143.113281 343.832031 "/>
<path style="fill-rule:nonzero;fill:url(#linear10);stroke-width:1.5;stroke-linecap:round;stroke-linejoin:round;stroke:rgb(0%,0%,0%);stroke-opacity:1;stroke-miterlimit:4;" d="M 438.669186 1180.961259 C 438.671593 1215.781073 410.348344 1244.009605 375.40605 1244.009884 C 340.471118 1244.006702 312.148659 1215.780135 312.146253 1180.960321 C 312.143847 1146.140506 340.467095 1117.911975 375.409389 1117.911696 C 410.351682 1117.911417 438.674141 1146.137985 438.669186 1180.961259 Z M 438.669186 1180.961259 " transform="matrix(0.434644,0.204135,-0.204318,0.434253,262.873413,-211.012256)"/>
<path style=" stroke:none;fill-rule:nonzero;fill:rgb(40%,40%,40%);fill-opacity:1;" d="M 211.335938 390.941406 C 212.359375 390.742188 198.027344 416.730469 172.460938 404.867188 C 146.859375 392.984375 157.472656 365.636719 157.945312 366.421875 C 173.785156 402.007812 191.933594 405.261719 211.335938 390.941406 Z M 211.335938 390.941406 "/>
<path style="fill-rule:nonzero;fill:url(#linear11);stroke-width:1.5;stroke-linecap:round;stroke-linejoin:round;stroke:rgb(0%,0%,0%);stroke-opacity:1;stroke-miterlimit:4;" d="M 402.916559 1176.387051 C 402.918965 1211.206865 374.595717 1239.435397 339.653423 1239.435675 C 304.718491 1239.432494 276.396032 1211.205926 276.393626 1176.386112 C 276.391219 1141.566298 304.714468 1113.337766 339.656761 1113.337487 C 374.591694 1113.340669 402.921514 1141.563776 402.916559 1176.387051 Z M 402.916559 1176.387051 " transform="matrix(0.434644,0.204135,-0.204318,0.434253,255.400343,-215.762698)"/>
<path style=" stroke:none;fill-rule:nonzero;fill:rgb(40%,40%,40%);fill-opacity:1;" d="M 189.257812 376.90625 C 190.28125 376.707031 175.949219 402.695312 150.382812 390.832031 C 124.78125 378.949219 135.394531 351.601562 135.867188 352.386719 C 151.703125 387.976562 169.851562 391.226562 189.257812 376.90625 Z M 189.257812 376.90625 "/>
<path style="fill-rule:nonzero;fill:url(#linear12);stroke-width:1.5;stroke-linecap:round;stroke-linejoin:round;stroke:rgb(0%,0%,0%);stroke-opacity:1;stroke-miterlimit:4;" d="M 428.333194 1123.213603 C 428.32824 1158.036877 400.004991 1186.265409 365.070058 1186.262227 C 330.127765 1186.262506 301.805306 1158.035938 301.8029 1123.216124 C 301.800494 1088.39631 330.123742 1060.167778 365.066036 1060.1675 C 400.008329 1060.167221 428.330788 1088.393789 428.333194 1123.213603 Z M 428.333194 1123.213603 " transform="matrix(0.434644,0.204135,-0.204318,0.434253,266.609949,-224.922895)"/>
<path style=" stroke:none;fill-rule:nonzero;fill:rgb(40%,40%,40%);fill-opacity:1;" d="M 222.375 349.84375 C 223.398438 349.644531 209.066406 375.632812 183.5 363.769531 C 157.902344 351.886719 168.511719 324.539062 168.984375 325.324219 C 184.824219 360.910156 202.972656 364.164062 222.375 349.84375 Z M 222.375 349.84375 "/>
<path style="fill-rule:nonzero;fill:url(#linear13);stroke-width:1.5;stroke-linecap:round;stroke-linejoin:round;stroke:rgb(0%,0%,0%);stroke-opacity:1;stroke-miterlimit:4;" d="M 407.762928 1053.470851 C 407.765335 1088.290665 379.442086 1116.519197 344.507153 1116.516016 C 309.56486 1116.516295 281.242401 1088.289727 281.239995 1053.469913 C 281.237589 1018.650099 309.560837 990.421567 344.503131 990.421288 C 379.445424 990.421009 407.767883 1018.647577 407.762928 1053.470851 Z M 407.762928 1053.470851 " transform="matrix(0.434644,0.204135,-0.204318,0.434253,269.328302,-242.56671)"/>
<path style=" stroke:none;fill-rule:nonzero;fill:rgb(40%,40%,40%);fill-opacity:1;" d="M 230.40625 297.71875 C 231.429688 297.515625 217.097656 323.503906 191.53125 311.640625 C 165.933594 299.761719 176.542969 272.410156 177.015625 273.195312 C 192.855469 308.785156 211.003906 312.035156 230.40625 297.714844 Z M 230.40625 297.71875 "/>
<path style="fill-rule:nonzero;fill:url(#linear14);stroke-width:1.5;stroke-linecap:round;stroke-linejoin:round;stroke:rgb(0%,0%,0%);stroke-opacity:1;stroke-miterlimit:4;" d="M 387.077473 1090.686721 C 387.079879 1125.506535 358.75663 1153.735067 323.814337 1153.735346 C 288.879404 1153.732164 260.556945 1125.505596 260.554539 1090.685782 C 260.552133 1055.865968 288.875382 1027.637436 323.817675 1027.637158 C 358.752608 1027.640339 387.082427 1055.863447 387.077473 1090.686721 Z M 387.077473 1090.686721 " transform="matrix(0.434644,0.204135,-0.204318,0.434253,260.83705,-236.458313)"/>
<path style=" stroke:none;fill-rule:nonzero;fill:rgb(40%,40%,40%);fill-opacity:1;" d="M 205.320312 315.765625 C 206.34375 315.5625 192.011719 341.550781 166.445312 329.6875 C 140.84375 317.808594 151.457031 290.457031 151.929688 291.242188 C 167.765625 326.832031 185.914062 330.082031 205.320312 315.761719 Z M 205.320312 315.765625 "/>
<path style="fill-rule:nonzero;fill:url(#linear15);stroke-width:1.5;stroke-linecap:round;stroke-linejoin:round;stroke:rgb(0%,0%,0%);stroke-opacity:1;stroke-miterlimit:4;" d="M 362.719919 1126.56526 C 362.722325 1161.385074 334.399076 1189.613606 299.456783 1189.613885 C 264.514489 1189.614164 236.19203 1161.387596 236.189624 1126.567782 C 236.194579 1091.744507 264.517827 1063.515976 299.45276 1063.519157 C 334.395053 1063.518878 362.717512 1091.745446 362.719919 1126.56526 Z M 362.719919 1126.56526 " transform="matrix(0.434644,0.204135,-0.204318,0.434253,251.668611,-231.031292)"/>
<path style=" stroke:none;fill-rule:nonzero;fill:rgb(40%,40%,40%);fill-opacity:1;" d="M 178.230469 331.796875 C 179.253906 331.597656 164.921875 357.585938 139.355469 345.722656 C 113.757812 333.839844 124.367188 306.492188 124.84375 307.277344 C 140.679688 342.863281 158.828125 346.117188 178.234375 331.796875 Z M 178.230469 331.796875 "/>
<path style="fill-rule:nonzero;fill:url(#linear16);stroke-width:1.5;stroke-linecap:round;stroke-linejoin:round;stroke:rgb(0%,0%,0%);stroke-opacity:1;stroke-miterlimit:4;" d="M 304.023052 1125.154308 C 304.025459 1159.974122 275.70221 1188.202654 240.759916 1188.202933 C 205.824984 1188.199751 177.502525 1159.973184 177.500119 1125.153369 C 177.497712 1090.333555 205.820961 1062.105024 240.763255 1062.104745 C 275.705548 1062.104466 304.028007 1090.331034 304.023052 1125.154308 Z M 304.023052 1125.154308 " transform="matrix(0.434644,0.204135,-0.204318,0.434253,238.763636,-237.475579)"/>
<path style=" stroke:none;fill-rule:nonzero;fill:rgb(40%,40%,40%);fill-opacity:1;" d="M 140.105469 312.757812 C 141.128906 312.558594 126.796875 338.546875 101.230469 326.683594 C 75.628906 314.800781 86.242188 287.453125 86.714844 288.234375 C 102.550781 323.824219 120.699219 327.078125 140.105469 312.757812 Z M 140.105469 312.757812 "/>
<path style="fill-rule:nonzero;fill:url(#linear17);stroke-width:1.5;stroke-linecap:round;stroke-linejoin:round;stroke:rgb(0%,0%,0%);stroke-opacity:1;stroke-miterlimit:4;" d="M -65.855343 1321.145982 C -80.674344 1352.658589 -118.315583 1366.155852 -149.929994 1351.290953 C -181.552539 1336.426055 -195.175935 1298.832353 -180.365067 1267.319746 C -165.546066 1235.807139 -127.904827 1222.309876 -96.290416 1237.174774 C -64.667871 1252.039673 -51.044475 1289.633375 -65.855343 1321.145982 Z M -65.855343 1321.145982 " transform="matrix(0.480274,0,0,0.479843,156.593482,-353.875815)"/>
<path style=" stroke:none;fill-rule:nonzero;fill:rgb(40%,40%,40%);fill-opacity:1;" d="M 124.054688 279.640625 C 125.078125 279.4375 110.746094 305.429688 85.179688 293.5625 C 59.582031 281.683594 70.191406 254.335938 70.664062 255.117188 C 86.5 290.707031 104.648438 293.960938 124.054688 279.640625 Z M 124.054688 279.640625 "/>
<path style="fill-rule:nonzero;fill:url(#linear18);stroke-width:1.5;stroke-linecap:round;stroke-linejoin:round;stroke:rgb(0%,0%,0%);stroke-opacity:1;stroke-miterlimit:4;" d="M 328.153185 1072.560691 C 328.155592 1107.380505 299.832343 1135.609037 264.890049 1135.609316 C 229.947756 1135.609594 201.625297 1107.383027 201.630252 1072.559752 C 201.627845 1037.739938 229.951094 1009.511406 264.893388 1009.511128 C 299.82832 1009.514309 328.150779 1037.740877 328.153185 1072.560691 Z M 328.153185 1072.560691 " transform="matrix(0.434644,0.204135,-0.204318,0.434253,249.627444,-246.640574)"/>
<path style=" stroke:none;fill-rule:nonzero;fill:rgb(40%,40%,40%);fill-opacity:1;" d="M 172.203125 285.679688 C 173.226562 285.480469 158.894531 311.46875 133.324219 299.605469 C 107.726562 287.722656 118.339844 260.375 118.8125 261.160156 C 134.648438 296.75 152.796875 300 172.203125 285.679688 Z M 172.203125 285.679688 "/>
<path style="fill-rule:nonzero;fill:url(#linear19);stroke-width:1.5;stroke-linecap:round;stroke-linejoin:round;stroke:rgb(0%,0%,0%);stroke-opacity:1;stroke-miterlimit:4;" d="M 358.491069 1020.13737 C 358.493475 1054.957184 330.170227 1083.185716 295.227933 1083.185995 C 260.293001 1083.182813 231.970542 1054.956245 231.968135 1020.136431 C 231.965729 985.316617 260.288978 957.088085 295.231271 957.087807 C 330.173565 957.087528 358.496024 985.314096 358.491069 1020.13737 Z M 358.491069 1020.13737 " transform="matrix(0.434644,0.204135,-0.204318,0.434253,261.855232,-255.119394)"/>
<path style=" stroke:none;fill-rule:nonzero;fill:rgb(40%,40%,40%);fill-opacity:1;" d="M 208.328125 260.632812 C 209.351562 260.429688 195.019531 286.417969 169.453125 274.554688 C 143.851562 262.675781 154.464844 235.324219 154.9375 236.109375 C 170.773438 271.699219 188.921875 274.949219 208.328125 260.628906 Z M 208.328125 260.632812 "/>
<path style="fill-rule:nonzero;fill:url(#linear20);stroke-width:1.5;stroke-linecap:round;stroke-linejoin:round;stroke:rgb(0%,0%,0%);stroke-opacity:1;stroke-miterlimit:4;" d="M 178.715287 1040.504143 C 178.710332 1075.327418 150.387083 1103.555949 115.452151 1103.552768 C 80.509857 1103.553047 52.187398 1075.326479 52.184992 1040.506665 C 52.189947 1005.683391 80.516659 977.462226 115.448128 977.45804 C 150.390421 977.457761 178.71288 1005.684329 178.715287 1040.504143 Z M 178.715287 1040.504143 " transform="matrix(0.434644,0.204135,-0.204318,0.434253,219.744768,-269.370722)"/>
<path style=" stroke:none;fill-rule:nonzero;fill:rgb(40%,40%,40%);fill-opacity:1;" d="M 83.914062 218.527344 C 84.9375 218.324219 70.605469 244.316406 45.039062 232.449219 C 19.441406 220.570312 30.050781 193.222656 30.523438 194.003906 C 46.363281 229.59375 64.511719 232.847656 83.914062 218.527344 Z M 83.914062 218.527344 "/>
<path style="fill-rule:nonzero;fill:url(#linear21);stroke-width:1.5;stroke-linecap:round;stroke-linejoin:round;stroke:rgb(0%,0%,0%);stroke-opacity:1;stroke-miterlimit:4;" d="M 230.254591 1055.974685 C 230.256997 1090.794499 201.933748 1119.023031 166.991455 1119.02331 C 132.056522 1119.020128 103.734063 1090.793561 103.731657 1055.973747 C 103.729251 1021.153932 132.0525 992.925401 166.994793 992.925122 C 201.929726 992.928303 230.259545 1021.151411 230.254591 1055.974685 Z M 230.254591 1055.974685 " transform="matrix(0.434644,0.204135,-0.204318,0.434253,229.590395,-260.551213)"/>
<path style=" stroke:none;fill-rule:nonzero;fill:rgb(40%,40%,40%);fill-opacity:1;" d="M 113.003906 244.582031 C 114.027344 244.382812 99.695312 270.371094 74.128906 258.507812 C 48.527344 246.625 59.140625 219.277344 59.613281 220.0625 C 75.449219 255.648438 93.597656 258.902344 113.003906 244.582031 Z M 113.003906 244.582031 "/>
<path style="fill-rule:nonzero;fill:url(#linear22);stroke-width:1.5;stroke-linecap:round;stroke-linejoin:round;stroke:rgb(0%,0%,0%);stroke-opacity:1;stroke-miterlimit:4;" d="M 292.943987 1046.350132 C 292.939032 1081.173406 264.615783 1109.401938 229.680851 1109.398756 C 194.738557 1109.399035 166.416098 1081.172467 166.413692 1046.352653 C 166.411286 1011.532839 194.734535 983.304307 229.676828 983.304028 C 264.619122 983.30375 292.94158 1011.530317 292.943987 1046.350132 Z M 292.943987 1046.350132 " transform="matrix(0.434644,0.204135,-0.204318,0.434253,244.536535,-256.141459)"/>
<path style=" stroke:none;fill-rule:nonzero;fill:rgb(40%,40%,40%);fill-opacity:1;" d="M 157.160156 257.613281 C 158.183594 257.410156 143.851562 283.398438 118.285156 271.535156 C 92.6875 259.65625 103.296875 232.304688 103.769531 233.089844 C 119.609375 268.679688 137.757812 271.929688 157.160156 257.609375 Z M 157.160156 257.613281 "/>
<path style="fill-rule:nonzero;fill:url(#linear23);stroke-width:1.5;stroke-linecap:round;stroke-linejoin:round;stroke:rgb(0%,0%,0%);stroke-opacity:1;stroke-miterlimit:4;" d="M 302.219625 994.653181 C 302.222031 1029.472995 273.898783 1057.701527 238.956489 1057.701806 C 204.014196 1057.702084 175.691737 1029.475517 175.696691 994.652242 C 175.694285 959.832428 204.017534 931.603896 238.959827 931.603618 C 273.89476 931.606799 302.217219 959.833367 302.219625 994.653181 Z M 302.219625 994.653181 " transform="matrix(0.434644,0.204135,-0.204318,0.434253,252.004803,-266.659611)"/>
<path style=" stroke:none;fill-rule:nonzero;fill:rgb(40%,40%,40%);fill-opacity:1;" d="M 179.226562 226.535156 C 180.25 226.335938 165.917969 252.324219 140.347656 240.460938 C 114.75 228.578125 125.363281 201.230469 125.835938 202.015625 C 141.671875 237.601562 159.820312 240.855469 179.226562 226.535156 Z M 179.226562 226.535156 "/>
<path style="fill-rule:nonzero;fill:url(#linear24);stroke-width:1.5;stroke-linecap:round;stroke-linejoin:round;stroke:rgb(0%,0%,0%);stroke-opacity:1;stroke-miterlimit:4;" d="M 388.951793 987.485005 C 388.954199 1022.304819 360.630951 1050.53335 325.688657 1050.533629 C 290.746364 1050.533908 262.423905 1022.30734 262.421499 987.487526 C 262.426453 952.664252 290.749702 924.43572 325.684635 924.438901 C 360.626928 924.438623 388.949387 952.66519 388.951793 987.485005 Z M 388.951793 987.485005 " transform="matrix(0.434644,0.204135,-0.204318,0.434253,272.041852,-259.193259)"/>
<path style=" stroke:none;fill-rule:nonzero;fill:rgb(40%,40%,40%);fill-opacity:1;" d="M 238.421875 248.59375 C 239.445312 248.394531 225.113281 274.382812 199.546875 262.519531 C 173.949219 250.636719 184.558594 223.289062 185.035156 224.074219 C 200.871094 259.664062 219.019531 262.914062 238.425781 248.59375 Z M 238.421875 248.59375 "/>
<path style="fill-rule:nonzero;fill:url(#linear25);stroke-width:1.5;stroke-linecap:round;stroke-linejoin:round;stroke:rgb(0%,0%,0%);stroke-opacity:1;stroke-miterlimit:4;" d="M 338.360641 957.819283 C 338.355686 992.642558 310.028974 1020.863722 275.097505 1020.867908 C 240.155212 1020.868187 211.832753 992.641619 211.830346 957.821805 C 211.82794 923.001991 240.151189 894.773459 275.093482 894.77318 C 310.035776 894.772902 338.358235 922.999469 338.360641 957.819283 Z M 338.360641 957.819283 " transform="matrix(0.434644,0.204135,-0.204318,0.434253,263.891595,-271.069365)"/>
<path style=" stroke:none;fill-rule:nonzero;fill:rgb(40%,40%,40%);fill-opacity:1;" d="M 214.34375 213.507812 C 215.367188 213.304688 201.035156 239.296875 175.46875 227.429688 C 149.871094 215.550781 160.480469 188.203125 160.953125 188.984375 C 176.792969 224.574219 194.941406 227.828125 214.34375 213.507812 Z M 214.34375 213.507812 "/>
<path style="fill-rule:nonzero;fill:url(#linear26);stroke-width:1.5;stroke-linecap:round;stroke-linejoin:round;stroke:rgb(0%,0%,0%);stroke-opacity:1;stroke-miterlimit:4;" d="M 276.351033 939.623287 C 276.353439 974.443102 248.03019 1002.671633 213.087897 1002.671912 C 178.145604 1002.672191 149.823145 974.445623 149.828099 939.622349 C 149.825693 904.802535 178.152405 876.58137 213.091235 876.573724 C 248.026168 876.576905 276.348627 904.803473 276.351033 939.623287 Z M 276.351033 939.623287 " transform="matrix(0.434644,0.204135,-0.204318,0.434253,252.004803,-281.587516)"/>
<path style=" stroke:none;fill-rule:nonzero;fill:rgb(40%,40%,40%);fill-opacity:1;" d="M 179.226562 182.433594 C 180.25 182.230469 165.917969 208.222656 140.347656 196.355469 C 114.75 184.476562 125.363281 157.128906 125.835938 157.910156 C 141.671875 193.5 159.820312 196.753906 179.226562 182.433594 Z M 179.226562 182.433594 "/>
<path style="fill-rule:nonzero;fill:url(#linear27);stroke-width:1.5;stroke-linecap:round;stroke-linejoin:round;stroke:rgb(0%,0%,0%);stroke-opacity:1;stroke-miterlimit:4;" d="M 189.770471 966.589765 C 189.772877 1001.409579 161.449629 1029.63811 126.507335 1029.638389 C 91.572403 1029.635208 63.242583 1001.4121 63.247538 966.588826 C 63.245131 931.769012 91.56838 903.54048 126.510674 903.540201 C 161.445606 903.543383 189.775426 931.76649 189.770471 966.589765 Z M 189.770471 966.589765 " transform="matrix(0.434644,0.204135,-0.204318,0.434253,229.931389,-284.639316)"/>
<path style=" stroke:none;fill-rule:nonzero;fill:rgb(40%,40%,40%);fill-opacity:1;" d="M 114.011719 173.417969 C 115.035156 173.214844 100.703125 199.203125 75.136719 187.339844 C 49.535156 175.460938 60.148438 148.109375 60.621094 148.894531 C 76.457031 184.484375 94.605469 187.734375 114.011719 173.414062 Z M 114.011719 173.417969 "/>
<path style="fill:none;stroke-width:3;stroke-linecap:butt;stroke-linejoin:miter;stroke:rgb(24.705882%,49.803922%,0%);stroke-opacity:1;stroke-miterlimit:4;" d="M -96.615751 1072.382806 C -96.615751 1072.382806 -101.072838 952.104126 -7.400809 912.011232 C 86.279353 871.918339 104.123968 885.277209 162.1149 929.831201 C 220.105831 974.377051 255.795061 952.104126 255.795061 952.104126 " transform="matrix(0.480274,0,0,0.479843,156.593482,-353.875815)"/>
<path style="fill-rule:nonzero;fill:url(#linear28);stroke-width:1.5;stroke-linecap:round;stroke-linejoin:round;stroke:rgb(0%,0%,0%);stroke-opacity:1;stroke-miterlimit:4;" d="M 230.325669 926.144579 C 230.320715 960.967854 201.997466 989.196385 167.062533 989.193204 C 132.12024 989.193483 103.797781 960.966915 103.795375 926.147101 C 103.792969 891.327287 132.116218 863.098755 167.058511 863.098476 C 202.000804 863.098198 230.323263 891.324765 230.325669 926.144579 Z M 230.325669 926.144579 " transform="matrix(0.434644,0.204135,-0.204318,0.434253,243.177358,-289.389758)"/>
<path style=" stroke:none;fill-rule:nonzero;fill:rgb(40%,40%,40%);fill-opacity:1;" d="M 153.144531 159.382812 C 154.167969 159.179688 139.835938 185.171875 114.269531 173.304688 C 88.671875 161.425781 99.28125 134.074219 99.753906 134.859375 C 115.59375 170.449219 133.742188 173.699219 153.144531 159.378906 Z M 153.144531 159.382812 "/>
<path style="fill-rule:nonzero;fill:rgb(0%,49.803922%,24.705882%);fill-opacity:1;stroke-width:1.5;stroke-linecap:round;stroke-linejoin:round;stroke:rgb(24.705882%,49.803922%,0%);stroke-opacity:1;stroke-miterlimit:4;" d="M -94.850809 800.57334 C -84.944364 784.169852 -91.898396 745.688815 -91.898396 745.688815 C -91.898396 745.688815 -109.580343 751.859457 -123.586007 761.204968 C -134.549791 748.326398 -150.287863 737.483 -150.287863 737.483 C -150.287863 737.483 -158.5351 754.38307 -161.942983 770.884247 C -178.811593 769.638722 -197.656613 773.204343 -197.656613 773.204343 C -197.656613 773.204343 -191.646052 790.926624 -182.455343 804.928609 C -195.346735 816.032509 -206.261719 831.931274 -206.261719 831.931274 C -206.261719 831.931274 -189.506975 840.096385 -173.1101 843.385224 C -174.476507 860.342279 -171.068624 879.2531 -171.068624 879.2531 C -171.068624 879.2531 -130.434305 865.063879 -123.577874 847.170644 C -119.340388 836.115588 -122.146401 818.930594 -132.093513 812.906484 C -132.13418 812.711107 -132.174847 812.532012 -132.223647 812.344776 C -132.126046 812.173822 -131.995912 812.02729 -131.898312 811.864476 C -131.711244 811.815632 -131.524177 811.783069 -131.337109 811.734225 C -131.117508 811.880757 -130.881641 812.02729 -130.653906 812.165681 C -120.52786 818.075821 -104.017118 812.02729 -96.428683 802.828311 C -95.851214 802.136352 -95.322545 801.387409 -94.842676 800.581481 Z M -94.850809 800.57334 " transform="matrix(0.480274,0,0,0.479843,156.593482,-353.875815)"/>
<path style="fill-rule:nonzero;fill:rgb(0%,49.803922%,24.705882%);fill-opacity:1;stroke-width:1.5;stroke-linecap:round;stroke-linejoin:round;stroke:rgb(24.705882%,49.803922%,0%);stroke-opacity:1;stroke-miterlimit:4;" d="M -237.656529 898.953567 C -247.278306 880.840534 -286.440485 866.089605 -286.440485 866.089605 C -286.440485 866.089605 -290.482771 885.733088 -289.604367 903.724011 C -307.440848 906.727925 -326.05 915.226804 -326.05 915.226804 C -326.05 915.226804 -315.06995 932.086171 -301.788156 944.280924 C -312.19887 959.096978 -319.274902 978.374129 -319.274902 978.374129 C -319.274902 978.374129 -299.697879 982.582866 -281.796331 981.825781 C -278.68125 999.784141 -270.084277 1018.540289 -270.084277 1018.540289 C -270.084277 1018.540289 -253.378334 1007.631766 -241.349079 994.370583 C -226.521945 1004.945338 -207.294657 1012.198692 -207.294657 1012.198692 C -207.294657 1012.198692 -197.990081 967.074853 -210.653739 950.948148 C -218.486175 940.983945 -235.802121 934.113203 -246.798438 939.950077 C -246.993638 939.884952 -247.188839 939.819826 -247.38404 939.7547 C -247.481641 939.575605 -247.554841 939.380229 -247.652441 939.201134 C -247.587374 939.005757 -247.530441 938.80224 -247.465374 938.606863 C -247.205106 938.492894 -246.944838 938.354502 -246.68457 938.21611 C -235.70452 932.159438 -232.182771 913.671933 -236.460924 901.639994 C -236.778125 900.736378 -237.17666 899.832761 -237.656529 898.945426 Z M -237.656529 898.953567 " transform="matrix(0.480274,0,0,0.479843,156.593482,-353.875815)"/>
<path style="fill:none;stroke-width:2;stroke-linecap:butt;stroke-linejoin:miter;stroke:rgb(24.705882%,49.803922%,0%);stroke-opacity:1;stroke-miterlimit:4;" d="M -56.119699 942.384143 C -56.119699 942.384143 -91.800795 924.564175 -140.877553 920.111218 C -189.946177 915.658261 -247.937109 937.931186 -247.937109 937.931186 " transform="matrix(0.480274,0,0,0.479843,156.593482,-353.875815)"/>
<path style="fill:none;stroke-width:2;stroke-linecap:butt;stroke-linejoin:miter;stroke:rgb(24.705882%,49.803922%,0%);stroke-opacity:1;stroke-miterlimit:4;" d="M -118.567718 919.932123 C -118.567718 919.932123 -91.800795 924.38508 -78.421401 879.839229 C -65.033873 835.293379 -127.490025 813.020454 -127.490025 813.020454 " transform="matrix(0.480274,0,0,0.479843,156.593482,-353.875815)"/>
<path style="fill-rule:nonzero;fill:rgb(49.803922%,100%,0%);fill-opacity:1;stroke-width:1.5;stroke-linecap:round;stroke-linejoin:round;stroke:rgb(0%,0%,0%);stroke-opacity:1;stroke-miterlimit:4;" d="M -250.124986 918.751723 C -255.354743 908.836364 -276.656041 900.768941 -276.656041 900.768941 C -276.656041 900.768941 -278.860184 911.51465 -278.380315 921.364884 C -288.083426 923.001162 -298.201339 927.657637 -298.201339 927.657637 C -298.201339 927.657637 -292.231445 936.881037 -285.009012 943.556402 C -290.669838 951.656388 -294.516922 962.206721 -294.516922 962.206721 C -294.516922 962.206721 -283.87034 964.510536 -274.134696 964.095361 C -272.442955 973.921172 -267.766267 984.186581 -267.766267 984.186581 C -267.766267 984.186581 -258.681292 978.219456 -252.133929 970.966102 C -244.073758 976.745991 -233.60611 980.718648 -233.60611 980.718648 C -233.60611 980.718648 -228.547154 956.027938 -235.436119 947.203431 C -239.698005 941.749169 -249.116448 937.988171 -255.102609 941.179321 C -255.200209 941.146758 -255.314076 941.106055 -255.41981 941.073492 C -255.46861 940.975804 -255.509277 940.869975 -255.566211 940.772287 C -255.525544 940.666458 -255.493011 940.552488 -255.460477 940.446659 C -255.314076 940.381534 -255.175809 940.308267 -255.037542 940.235001 C -249.059515 936.921741 -247.148172 926.802864 -249.474316 920.225187 C -249.645117 919.728605 -249.864718 919.232023 -250.124986 918.743582 Z M -250.124986 918.751723 " transform="matrix(0.480274,0,0,0.479843,156.593482,-353.875815)"/>
<path style="fill-rule:nonzero;fill:rgb(49.803922%,100%,0%);fill-opacity:1;stroke-width:1.5;stroke-linecap:round;stroke-linejoin:round;stroke:rgb(0%,0%,0%);stroke-opacity:1;stroke-miterlimit:4;" d="M -119.08012 804.11454 C -113.695829 795.159782 -117.477846 774.140523 -117.477846 774.140523 C -117.477846 774.140523 -127.083357 777.510768 -134.688058 782.61498 C -140.641685 775.581425 -149.189858 769.655003 -149.189858 769.655003 C -149.189858 769.655003 -153.679478 778.886544 -155.525753 787.898287 C -164.692062 787.22261 -174.923842 789.168235 -174.923842 789.168235 C -174.923842 789.168235 -171.66236 798.847514 -166.668471 806.499762 C -173.671303 812.564575 -179.60053 821.25069 -179.60053 821.25069 C -179.60053 821.25069 -170.499289 825.703647 -161.593248 827.502739 C -162.333384 836.766843 -160.478976 847.097378 -160.478976 847.097378 C -160.478976 847.097378 -138.413142 839.347442 -134.688058 829.578615 C -132.386314 823.530083 -133.907254 814.143869 -139.315946 810.85503 C -139.332213 810.749201 -139.356613 810.651513 -139.381013 810.545684 C -139.324079 810.456137 -139.259012 810.37473 -139.210212 810.285182 C -139.104478 810.252619 -139.006878 810.244479 -138.901144 810.211916 C -138.779143 810.301463 -138.657143 810.37473 -138.527009 810.456137 C -133.02885 813.679849 -124.057743 810.38287 -119.934124 805.351925 C -119.625056 804.977453 -119.340388 804.562278 -119.071987 804.12268 Z M -119.08012 804.11454 " transform="matrix(0.480274,0,0,0.479843,156.593482,-353.875815)"/>
<path style="fill-rule:nonzero;fill:url(#linear29);stroke-width:1.5;stroke-linecap:round;stroke-linejoin:round;stroke:rgb(0%,0%,0%);stroke-opacity:1;stroke-miterlimit:4;" d="M 283.162174 414.526447 C 268.343173 446.039054 230.701934 459.536317 199.087523 444.671419 C 167.464978 429.806521 153.841583 392.212819 168.65245 360.700211 C 183.463318 329.187604 221.104557 315.698482 252.727102 330.55524 C 284.349646 345.420138 297.973042 383.01384 283.162174 414.526447 Z M 283.162174 414.526447 " transform="matrix(0.480274,0,0,0.479843,0.938038,3.748771)"/>
<path style=" stroke:none;fill-rule:nonzero;fill:rgb(40%,40%,40%);fill-opacity:1;" d="M 136.019531 202.230469 C 137.042969 202.027344 122.710938 228.019531 97.144531 216.152344 C 71.546875 204.273438 82.15625 176.925781 82.628906 177.707031 C 98.46875 213.296875 116.617188 216.546875 136.019531 202.230469 Z M 136.019531 202.230469 "/>
</g>
</svg>
