<?xml version="1.0" encoding="UTF-8"?>
<svg xmlns="http://www.w3.org/2000/svg" xmlns:xlink="http://www.w3.org/1999/xlink" width="179pt" height="127pt" viewBox="0 0 179 127" version="1.1">
<defs>
<filter id="alpha" filterUnits="objectBoundingBox" x="0%" y="0%" width="100%" height="100%">
  <feColorMatrix type="matrix" in="SourceGraphic" values="0 0 0 0 1 0 0 0 0 1 0 0 0 0 1 0 0 0 1 0"/>
</filter>
<mask id="mask0">
  <g filter="url(#alpha)">
<rect x="0" y="0" width="179" height="127" style="fill:rgb(0%,0%,0%);fill-opacity:0.301961;stroke:none;"/>
  </g>
</mask>
<radialGradient id="radial0" gradientUnits="userSpaceOnUse" cx="200" cy="249" fx="200" fy="249" r="168" gradientTransform="matrix(0.507607,0,0,0.133613,-7.804084,71.263339)">
<stop offset="0" style="stop-color:rgb(0%,0%,0%);stop-opacity:1;"/>
<stop offset="1" style="stop-color:rgb(0%,0%,0%);stop-opacity:0;"/>
</radialGradient>
<clipPath id="clip1">
  <rect x="0" y="0" width="179" height="127"/>
</clipPath>
<g id="surface5" clip-path="url(#clip1)">
<path style=" stroke:none;fill-rule:nonzero;fill:url(#radial0);" d="M 178.992188 104.527344 C 178.992188 116.917969 140.789062 126.972656 93.710938 126.972656 C 46.636719 126.972656 8.433594 116.917969 8.433594 104.527344 C 8.433594 92.136719 46.636719 82.082031 93.710938 82.082031 C 140.789062 82.082031 178.992188 92.136719 178.992188 104.527344 Z M 178.992188 104.527344 "/>
</g>
<mask id="mask1">
  <g filter="url(#alpha)">
<rect x="0" y="0" width="179" height="127" style="fill:rgb(0%,0%,0%);fill-opacity:0.6;stroke:none;"/>
  </g>
</mask>
<linearGradient id="linear0" gradientUnits="userSpaceOnUse" x1="337.25" y1="21.844" x2="352.47" y2="57.68" gradientTransform="matrix(0.488703,0,0,0.487958,-6.717439,-9.16586)">
<stop offset="0" style="stop-color:rgb(100%,100%,100%);stop-opacity:1;"/>
<stop offset="1" style="stop-color:rgb(100%,100%,100%);stop-opacity:0;"/>
</linearGradient>
<clipPath id="clip2">
  <rect x="0" y="0" width="179" height="127"/>
</clipPath>
<g id="surface8" clip-path="url(#clip2)">
<path style=" stroke:none;fill-rule:evenodd;fill:url(#linear0);" d="M 172.148438 1.492188 L 170.988281 2.101562 L 170.164062 4.160156 L 167.785156 7.042969 C 167.785156 7.042969 167.863281 9.921875 167.199219 10.167969 C 166.542969 10.417969 164.386719 9.910156 164.386719 9.910156 L 162.996094 7.609375 C 162.996094 7.609375 160.851562 6.953125 160.929688 8.933594 C 161.011719 10.90625 161.011719 11.898438 160.105469 12.394531 C 160.105469 12.394531 161.019531 14.285156 159.953125 15.109375 C 158.882812 15.929688 158.300781 16.664062 158.300781 16.664062 L 158.101562 18.96875 L 165.015625 23.175781 L 166.132812 22.75 L 167.695312 18.722656 C 167.695312 18.722656 165.386719 15.925781 164.972656 14.363281 C 164.03125 12.9375 165.144531 12.390625 167.199219 13.296875 L 170.667969 10.414062 C 172.398438 9.589844 168.609375 9.101562 168.609375 9.101562 C 169.265625 6.796875 169.507812 6.296875 169.507812 6.296875 L 170.59375 8.1875 C 171.582031 8.433594 172.5625 5.808594 172.5625 5.808594 C 173.546875 4.492188 172.472656 1.707031 172.472656 1.707031 Z M 172.148438 1.492188 "/>
</g>
<mask id="mask2">
  <g filter="url(#alpha)">
<rect x="0" y="0" width="179" height="127" style="fill:rgb(0%,0%,0%);fill-opacity:0.6;stroke:none;"/>
  </g>
</mask>
<radialGradient id="radial1" gradientUnits="userSpaceOnUse" cx="188.45" cy="178.4" fx="188.45" fy="178.4" r="180.34" gradientTransform="matrix(0.488703,-0.326244,0.366612,0.547507,-68.701084,30.953867)">
<stop offset="0" style="stop-color:rgb(93.72549%,84.313725%,27.843137%);stop-opacity:0;"/>
<stop offset="1" style="stop-color:rgb(76.078431%,85.098039%,23.529412%);stop-opacity:1;"/>
</radialGradient>
<clipPath id="clip3">
  <rect x="0" y="0" width="179" height="127"/>
</clipPath>
<g id="surface11" clip-path="url(#clip3)">
<path style=" stroke:none;fill-rule:evenodd;fill:url(#radial1);" d="M 0.746094 55.417969 C 0.132812 63.96875 3.359375 72.359375 8.089844 79.789062 C 17.324219 94.257812 35.015625 103.96875 41.238281 106.558594 C 48.613281 109.644531 61.75 116.578125 91.339844 117.207031 C 116.261719 117.738281 132.480469 109.417969 142.277344 104.292969 C 151.726562 99.347656 166.554688 86.964844 171.582031 78.429688 C 178.917969 65.984375 176.574219 55.128906 176.574219 55.128906 C 176.421875 50.175781 172.75 43.054688 171.804688 36.738281 C 170.855469 30.425781 173.863281 23.273438 173.863281 23.273438 C 173.863281 23.273438 170.855469 25.234375 169.15625 24.894531 C 167.269531 24.519531 166.03125 22.78125 164.972656 22.402344 C 162.25 21.417969 157.714844 18.433594 157.714844 18.433594 L 155.945312 18.890625 C 157.257812 21.730469 155.542969 29.277344 154.789062 32.28125 C 153.128906 41.390625 122.457031 64.125 122.457031 64.125 C 104.847656 75.542969 70.019531 72.71875 53.199219 63.933594 C 40.042969 57.0625 29.050781 50.625 23.269531 50.679688 L 18.714844 49.71875 C 18.714844 49.71875 10.320312 45.273438 8.21875 46.328125 C 7.128906 50.085938 6.242188 52.296875 5.128906 53.59375 C 4.023438 54.898438 2.695312 55.292969 0.746094 55.417969 Z M 0.746094 55.417969 "/>
</g>
<mask id="mask3">
  <g filter="url(#alpha)">
<rect x="0" y="0" width="179" height="127" style="fill:rgb(0%,0%,0%);fill-opacity:0.2;stroke:none;"/>
  </g>
</mask>
<linearGradient id="linear1" gradientUnits="userSpaceOnUse" x1="340.97" y1="118.41" x2="370.69" y2="47.562" gradientTransform="matrix(0.488703,0,0,0.487958,-3.295856,-19.901263)">
<stop offset="0" style="stop-color:rgb(0%,0%,0%);stop-opacity:0;"/>
<stop offset="1" style="stop-color:rgb(33.333333%,34.901961%,29.803922%);stop-opacity:1;"/>
</linearGradient>
<clipPath id="clip4">
  <rect x="0" y="0" width="179" height="127"/>
</clipPath>
<g id="surface14" clip-path="url(#clip4)">
<path style=" stroke:none;fill-rule:evenodd;fill:url(#linear1);" d="M 174.867188 3.308594 C 173.691406 7.476562 172.757812 13.6875 171.339844 16.269531 C 169.425781 19.742188 163.339844 22.351562 163.339844 22.351562 C 164.730469 23.917969 164.902344 29.777344 163.6875 31.898438 C 161.660156 35.445312 170.046875 33.085938 172.011719 37.875 C 171.941406 37.492188 171.851562 37.113281 171.796875 36.734375 C 170.890625 30.71875 173.558594 24.019531 173.816406 23.390625 C 174.921875 22.570312 175.757812 21.472656 175.675781 20.019531 C 175.460938 15.882812 177.203125 8.261719 177.203125 8.261719 L 177.859375 7.882812 L 177.816406 5.257812 Z M 174.867188 3.308594 "/>
</g>
<radialGradient id="radial2" gradientUnits="userSpaceOnUse" cx="182.34" cy="143.22" fx="182.34" fy="143.22" r="158.3" gradientTransform="matrix(0.516488,-0.218422,0.130352,0.307305,-28.387467,47.41488)">
<stop offset="0" style="stop-color:rgb(98.431373%,94.117647%,48.235294%);stop-opacity:1;"/>
<stop offset="1" style="stop-color:rgb(100%,100%,100%);stop-opacity:0;"/>
</radialGradient>
<mask id="mask4">
  <g filter="url(#alpha)">
<rect x="0" y="0" width="179" height="127" style="fill:rgb(0%,0%,0%);fill-opacity:0.2;stroke:none;"/>
  </g>
</mask>
<linearGradient id="linear2" gradientUnits="userSpaceOnUse" x1="8.0999" y1="176.09" x2="29.662" y2="176.09" gradientTransform="matrix(0.488703,0,0,0.487958,-3.295856,-19.901263)">
<stop offset="0" style="stop-color:rgb(18.039216%,20.392157%,21.176471%);stop-opacity:1;"/>
<stop offset="1" style="stop-color:rgb(18.039216%,20.392157%,21.176471%);stop-opacity:0;"/>
</linearGradient>
<clipPath id="clip5">
  <rect x="0" y="0" width="179" height="127"/>
</clipPath>
<g id="surface17" clip-path="url(#clip5)">
<path style=" stroke:none;fill-rule:evenodd;fill:url(#linear2);" d="M 7.425781 48.933594 C 5.800781 53.394531 4.480469 55.273438 0.738281 55.410156 C 0.132812 63.96875 3.359375 72.351562 8.101562 79.78125 C 8.828125 80.921875 9.601562 82.035156 10.417969 83.117188 C 9.167969 79.90625 8.71875 78.898438 9.035156 77.214844 C 9.410156 75.101562 14.054688 76.066406 8.46875 70.875 C 2.875 65.679688 4.023438 59.132812 5.566406 57.59375 C 7.105469 56.058594 10.191406 60.671875 9.808594 56.632812 C 9.554688 53.960938 8.59375 50.886719 7.425781 48.933594 Z M 7.425781 48.933594 "/>
</g>
<mask id="mask5">
  <g filter="url(#alpha)">
<rect x="0" y="0" width="179" height="127" style="fill:rgb(0%,0%,0%);fill-opacity:0.2;stroke:none;"/>
  </g>
</mask>
<linearGradient id="linear3" gradientUnits="userSpaceOnUse" x1="126.94" y1="281.05" x2="126.94" y2="268.78" gradientTransform="matrix(0.488703,0,0,0.487958,-3.295856,-19.901263)">
<stop offset="0" style="stop-color:rgb(18.039216%,20.392157%,21.176471%);stop-opacity:1;"/>
<stop offset="1" style="stop-color:rgb(18.039216%,20.392157%,21.176471%);stop-opacity:0;"/>
</linearGradient>
<clipPath id="clip6">
  <rect x="0" y="0" width="179" height="127"/>
</clipPath>
<g id="surface20" clip-path="url(#clip6)">
<path style=" stroke:none;fill-rule:evenodd;fill:url(#linear3);" d="M 127.171875 111.253906 C 94.976562 120.011719 69.492188 112.648438 67.992188 113.203125 C 66.914062 113.609375 61.785156 113.25 58.742188 113.007812 C 66.5625 115.113281 77.027344 116.910156 91.351562 117.214844 C 106.238281 117.53125 118.011719 114.6875 127.171875 111.253906 Z M 127.171875 111.253906 "/>
</g>
</defs>
<g id="surface1">
<use xlink:href="#surface5" mask="url(#mask0)"/>
<path style=" stroke:none;fill-rule:evenodd;fill:rgb(33.333333%,34.901961%,29.803922%);fill-opacity:1;" d="M 0.773438 55.921875 L 8.433594 57.835938 L 10.265625 46.894531 C 10.265625 46.894531 7.921875 44.5625 6.160156 48.691406 C 5.539062 50.148438 2.398438 50.886719 0.773438 55.921875 Z M 0.773438 55.921875 "/>
<path style=" stroke:none;fill-rule:evenodd;fill:rgb(93.333333%,85.490196%,20.392157%);fill-opacity:1;" d="M 0.746094 55.417969 C 0.132812 63.96875 3.359375 72.359375 8.089844 79.789062 C 17.324219 94.257812 35.015625 103.96875 41.238281 106.558594 C 48.613281 109.644531 61.75 116.578125 91.339844 117.207031 C 116.261719 117.738281 132.480469 109.417969 142.277344 104.292969 C 151.726562 99.347656 166.554688 86.964844 171.582031 78.429688 C 178.917969 65.984375 176.574219 55.128906 176.574219 55.128906 C 176.421875 50.175781 172.75 43.054688 171.804688 36.738281 C 170.855469 30.425781 173.863281 23.273438 173.863281 23.273438 C 173.863281 23.273438 174.5 22.808594 172.804688 22.46875 C 170.917969 22.09375 166.03125 22.78125 164.972656 22.402344 C 162.25 21.417969 157.257812 17.070312 157.257812 17.070312 L 155.945312 18.890625 C 157.257812 21.730469 154.878906 28.417969 153.433594 31.128906 C 150.917969 37.359375 143.929688 45.742188 135.589844 52.898438 C 127.246094 60.058594 118.605469 65.796875 118.605469 65.796875 C 103.457031 74.457031 70.019531 72.71875 53.199219 63.933594 C 40.042969 57.0625 29.050781 50.625 23.269531 50.679688 L 18.714844 49.71875 C 18.714844 49.71875 10.320312 45.273438 8.21875 46.328125 C 6.054688 53.835938 4.644531 55.175781 0.746094 55.417969 Z M 0.746094 55.417969 "/>
<path style=" stroke:none;fill-rule:evenodd;fill:rgb(83.529412%,68.235294%,42.352941%);fill-opacity:1;" d="M 157.042969 18.332031 C 157.042969 18.332031 157.472656 15.445312 157.3125 14.738281 L 159.054688 15.226562 L 159.386719 13.214844 L 158.515625 11.472656 L 159.109375 11.417969 L 160.257812 11.960938 L 160.203125 7.660156 L 160.742188 7.117188 L 163.527344 6.953125 L 164.398438 8.371094 L 165.707031 8.371094 L 167.179688 7.117188 L 169.191406 4.667969 L 169.472656 2.382812 L 170.011719 2.21875 L 170.011719 0.695312 L 171.105469 0.804688 L 177.804688 5.265625 L 177.867188 7.878906 L 177.210938 8.261719 C 177.210938 8.261719 175.460938 15.882812 175.6875 20.019531 C 175.902344 24.15625 168.761719 25.460938 168.761719 25.460938 Z M 157.042969 18.332031 "/>
<use xlink:href="#surface8" mask="url(#mask1)"/>
<use xlink:href="#surface11" mask="url(#mask2)"/>
<use xlink:href="#surface14" mask="url(#mask3)"/>
<path style=" stroke:none;fill-rule:evenodd;fill:url(#radial2);" d="M 156.441406 17.964844 C 155.550781 41.695312 129.875 58.738281 117.949219 65.578125 C 99.164062 74.960938 69.167969 72.0625 52.929688 63.664062 C 39.738281 56.847656 28.792969 50.347656 23.007812 50.402344 L 18.445312 49.457031 C 18.445312 49.457031 15.699219 47.992188 12.949219 46.9375 L 13.203125 47.523438 L 9.539062 47.703125 L 16.09375 57.511719 C 18.984375 62.324219 37.871094 70.785156 37.871094 70.785156 C 43.65625 73.484375 55.785156 79.832031 55.785156 79.832031 C 62.53125 82.523438 76.398438 83.871094 76.398438 83.871094 C 90.011719 87.351562 99.558594 83.367188 113.207031 80.605469 C 113.207031 80.605469 124.867188 75.515625 129.582031 72.730469 C 134.78125 69.644531 147.164062 58.277344 150.011719 53.863281 C 151.742188 51.164062 155.203125 47.523438 155.203125 47.523438 C 153.082031 49.058594 151.160156 49.824219 151.160156 49.824219 C 157.941406 41.652344 161.765625 31.453125 164.261719 23.273438 C 161.605469 22.390625 158.175781 19.738281 156.441406 17.964844 Z M 156.441406 17.964844 "/>
<use xlink:href="#surface17" mask="url(#mask4)"/>
<use xlink:href="#surface20" mask="url(#mask5)"/>
</g>
</svg>
